<svg id="visual" viewBox="0 0 960 540" width="960" height="540" xmlns="http://www.w3.org/2000/svg" xmlns:xlink="http://www.w3.org/1999/xlink" version="1.1"><rect x="0" y="0" width="960" height="540" fill="#1c0f1e"></rect><path d="M0 345L22.8 349.8C45.7 354.7 91.3 364.3 137 361.2C182.7 358 228.3 342 274 339.8C319.7 337.7 365.3 349.3 411.2 359.5C457 369.7 503 378.3 548.8 376.8C594.7 375.3 640.3 363.7 686 361.7C731.7 359.7 777.3 367.3 823 371.2C868.7 375 914.3 375 937.2 375L960 375L960 541L937.2 541C914.3 541 868.7 541 823 541C777.3 541 731.7 541 686 541C640.3 541 594.7 541 548.8 541C503 541 457 541 411.2 541C365.3 541 319.7 541 274 541C228.3 541 182.7 541 137 541C91.3 541 45.7 541 22.8 541L0 541Z" fill="#eb1bc7"></path><path d="M0 397L22.8 397.3C45.7 397.7 91.3 398.3 137 396.7C182.7 395 228.3 391 274 383.5C319.7 376 365.3 365 411.2 361.8C457 358.7 503 363.3 548.8 365.8C594.7 368.3 640.3 368.7 686 376.5C731.7 384.3 777.3 399.7 823 404.3C868.7 409 914.3 403 937.2 400L960 397L960 541L937.2 541C914.3 541 868.7 541 823 541C777.3 541 731.7 541 686 541C640.3 541 594.7 541 548.8 541C503 541 457 541 411.2 541C365.3 541 319.7 541 274 541C228.3 541 182.7 541 137 541C91.3 541 45.7 541 22.8 541L0 541Z" fill="#ba26b5"></path><path d="M0 414L22.8 412.7C45.7 411.3 91.3 408.7 137 412.7C182.7 416.7 228.3 427.3 274 427.2C319.7 427 365.3 416 411.2 414.8C457 413.7 503 422.3 548.8 428.2C594.7 434 640.3 437 686 433.2C731.7 429.3 777.3 418.7 823 411.5C868.7 404.3 914.3 400.7 937.2 398.8L960 397L960 541L937.2 541C914.3 541 868.7 541 823 541C777.3 541 731.7 541 686 541C640.3 541 594.7 541 548.8 541C503 541 457 541 411.2 541C365.3 541 319.7 541 274 541C228.3 541 182.7 541 137 541C91.3 541 45.7 541 22.8 541L0 541Z" fill="#8c289f"></path><path d="M0 445L22.8 443C45.7 441 91.3 437 137 439.2C182.7 441.3 228.3 449.7 274 452.5C319.7 455.3 365.3 452.7 411.2 455.5C457 458.3 503 466.7 548.8 468C594.7 469.3 640.3 463.7 686 457C731.7 450.3 777.3 442.7 823 441.2C868.7 439.7 914.3 444.3 937.2 446.7L960 449L960 541L937.2 541C914.3 541 868.7 541 823 541C777.3 541 731.7 541 686 541C640.3 541 594.7 541 548.8 541C503 541 457 541 411.2 541C365.3 541 319.7 541 274 541C228.3 541 182.7 541 137 541C91.3 541 45.7 541 22.8 541L0 541Z" fill="#612586"></path><path d="M0 497L22.8 498.3C45.7 499.7 91.3 502.3 137 501.5C182.7 500.7 228.3 496.3 274 496.8C319.7 497.3 365.3 502.7 411.2 502.7C457 502.7 503 497.3 548.8 495.3C594.7 493.3 640.3 494.7 686 493.3C731.7 492 777.3 488 823 490.5C868.7 493 914.3 502 937.2 506.5L960 511L960 541L937.2 541C914.3 541 868.7 541 823 541C777.3 541 731.7 541 686 541C640.3 541 594.7 541 548.8 541C503 541 457 541 411.2 541C365.3 541 319.7 541 274 541C228.3 541 182.7 541 137 541C91.3 541 45.7 541 22.8 541L0 541Z" fill="#3b1e6a"></path></svg>